<svg xmlns="http://www.w3.org/2000/svg" viewBox="0 0 900 600">
  <rect fill="#de2910" width="900" height="600"/>
  <g fill="#ffde00">
    <polygon points="150,120 170,180 235,180 185,220 200,280 150,240 100,280 115,220 65,180 130,180"/>
    <polygon points="260,50 275,95 240,70 290,70 255,95"/>
    <polygon points="310,100 325,145 290,120 340,120 305,145"/>
    <polygon points="310,180 325,225 290,200 340,200 305,225"/>
    <polygon points="260,230 275,275 240,250 290,250 255,275"/>
  </g>
</svg>

